# xmcd
# 
# Track frame offsets:
#     150
#     13036
#     32327
#     57625
#     75156
#     86695
#     106191
#     126991
#     139971
#     176835
# 
# Disc length: 2528
# 
# Revision: 2
# Processed by: cddbd v1.5.2PL0 Copyright (c) Steve Scherf et al.
# Submitted via: fre:ac v1.0.17
# 
DISCID=7d09de0a
DTITLE=Remember Twilight - Zerrissen
DYEAR=2005
DGENRE=Gothic
TTITLE0=Der Wahnsinn lebt
TTITLE1=Chaos der Ängste
TTITLE2=Vermächtnis der Nacht
TTITLE3=Tränen für Euer Blut
TTITLE4=L'ensemble fatal
TTITLE5=Auch in dieser Zeit
TTITLE6=Kein Gesicht
TTITLE7=Vampir
TTITLE8=Wirklichkeit verstehen
TTITLE9=Der Wahnsinn
EXTD=
EXTT0=
EXTT1=
EXTT2=
EXTT3=
EXTT4=
EXTT5=
EXTT6=
EXTT7=
EXTT8=
EXTT9=
PLAYORDER=
